<svg width="16" height="16" viewBox="0 0 16 16" fill="none" xmlns="http://www.w3.org/2000/svg">
<rect width="16" height="16" rx="3" fill="white"/>
<path d="M4.035 7L2.671 3.26H2.099V2.677H4.057V3.26H3.463L4.486 6.197L5.509 3.26H4.893V2.677H7.016V3.26H6.389L7.456 6.208L8.402 3.26H7.797V2.677H9.744V3.26H9.139L7.841 7H7.049L5.938 3.931L4.827 7H4.035ZM10.2483 7V6.417H11.0843V3.26H10.2483V2.677H11.8873V3.964L11.7333 3.942C11.8139 3.612 11.9166 3.35167 12.0413 3.161C12.1733 2.97033 12.3199 2.83467 12.4813 2.754C12.6499 2.666 12.8223 2.622 12.9983 2.622C13.1449 2.622 13.2916 2.64033 13.4383 2.677C13.5849 2.71367 13.7316 2.76867 13.8783 2.842L13.6803 3.579C13.5556 3.49833 13.4309 3.43967 13.3063 3.403C13.1816 3.359 13.0533 3.337 12.9213 3.337C12.6426 3.337 12.4006 3.45433 12.1953 3.689C11.9973 3.91633 11.8983 4.24633 11.8983 4.679L11.8873 6.417H12.6573V7H10.2483ZM4.519 14.121C4.123 14.121 3.75633 14.033 3.419 13.857C3.089 13.6737 2.82133 13.4097 2.616 13.065C2.41067 12.7203 2.308 12.3097 2.308 11.833C2.308 11.3417 2.40333 10.931 2.594 10.601C2.792 10.2637 3.05233 10.007 3.375 9.831C3.69767 9.655 4.04967 9.567 4.431 9.567C4.739 9.567 5.04333 9.62567 5.344 9.743C5.652 9.853 5.92333 10.0107 6.158 10.216L5.894 10.315V8.269H5.124V7.697H6.708V13.417H7.39V14H5.894V13.428L6.147 13.472C5.93433 13.6773 5.69233 13.8387 5.421 13.956C5.157 14.066 4.85633 14.121 4.519 14.121ZM4.695 13.505C4.981 13.505 5.245 13.45 5.487 13.34C5.73633 13.23 5.96367 13.0833 6.169 12.9L5.894 13.274V10.414L6.169 10.81C5.94167 10.612 5.685 10.458 5.399 10.348C5.12033 10.238 4.85267 10.183 4.596 10.183C4.31733 10.183 4.068 10.249 3.848 10.381C3.63533 10.513 3.46667 10.7073 3.342 10.964C3.21733 11.2133 3.155 11.525 3.155 11.899C3.155 12.2437 3.22467 12.537 3.364 12.779C3.50333 13.0137 3.68667 13.1933 3.914 13.318C4.14867 13.4427 4.409 13.505 4.695 13.505ZM7.88165 14V13.417H8.71765V10.26H7.88165V9.677H9.52065V10.271L9.21265 10.304C9.52065 10.0913 9.82865 9.91533 10.1366 9.776C10.4446 9.63667 10.76 9.567 11.0826 9.567C11.4786 9.567 11.8123 9.69167 12.0836 9.941C12.3623 10.183 12.5016 10.5387 12.5016 11.008V13.417H13.3046V14H10.9836V13.417H11.6986V11.162C11.6986 10.8613 11.6253 10.6267 11.4786 10.458C11.332 10.2893 11.1303 10.205 10.8736 10.205C10.6096 10.205 10.342 10.2637 10.0706 10.381C9.79932 10.4983 9.50965 10.6597 9.20165 10.865L9.52065 10.513V13.417H10.3016V14H7.88165Z" fill="black"/>
</svg>
